<svg width="105" height="83" viewBox="0 0 105 83" fill="none" xmlns="http://www.w3.org/2000/svg">
<path d="M40.2734 47.0313C36.9141 50.3125 33.5417 52.7214 30.1562 54.2579C26.7708 55.7943 22.9427 56.5625 18.6719 56.5625C13.0208 56.5625 8.48961 55.1953 5.07812 52.461C1.69271 49.7266 0 46.1329 0 41.6797C0 37.7995 1.39323 34.4011 4.17969 31.4844C6.96614 28.5417 11.237 26.4974 16.9922 25.3516C11.4453 23.2422 8.67191 19.6875 8.67191 14.6875C8.67191 10.7032 10.5859 7.2657 14.4141 4.375C18.2422 1.4584 22.8515 0 28.2422 0C32.1224 0 34.9349 0.768301 36.6797 2.3047C38.4245 3.8151 39.2969 5.1953 39.2969 6.4453C39.2969 7.2266 38.6458 8.4375 37.3437 10.0782C36.0417 11.7188 35.0911 12.5391 34.4922 12.5391C33.7891 12.5391 33.2812 11.5495 32.9687 9.5703C32.2396 5.1433 30.4557 2.9297 27.6172 2.9297C25.4036 2.9297 23.3984 4.1667 21.6015 6.6407C19.8047 9.1146 18.9062 11.9141 18.9062 15.0391C18.9062 20.0391 21.3542 22.5391 26.25 22.5391C27.0573 22.5391 27.6042 22.5912 27.8906 22.6953C28.1771 22.7735 28.3203 22.9948 28.3203 23.3594C28.3203 24.349 28.125 25.4427 27.7344 26.6407C27.3437 27.8125 26.8489 28.3985 26.25 28.3985C26.0677 28.3985 25.4167 28.3334 24.2969 28.2032C23.1771 28.0469 22.2005 27.9688 21.3672 27.9688C18.6068 27.9688 16.237 29.1016 14.2578 31.3672C12.2786 33.6329 11.2891 36.3672 11.2891 39.5703C11.2891 43.0339 12.4479 45.9115 14.7656 48.2032C17.0833 50.4688 20.013 51.6016 23.5547 51.6016C26.4713 51.6016 29.388 50.8203 32.3047 49.2579C35.2213 47.6953 37.8776 45.4558 40.2734 42.5391V47.0313Z" fill="#93DEFF"/>
<path d="M75.3515 47.0312C74.1536 48.0729 72.9427 48.815 71.7187 49.2578C70.4948 49.7005 69.5443 49.9218 68.8672 49.9218C66.9661 49.9218 65.0911 49.1926 63.2422 47.7343C58.6068 53.6197 53.6979 56.5624 48.5156 56.5624C45.8073 56.5624 43.6849 55.638 42.1484 53.789C40.638 51.914 39.8828 49.3098 39.8828 45.9765C39.8828 42.3046 40.7943 37.7994 42.6172 32.4609L45.3515 24.4531L55.9765 22.4609L51.25 36.5624C50.7552 38.0989 50.2864 39.9218 49.8437 42.0312C49.401 44.1406 49.1797 45.651 49.1797 46.5624C49.1797 47.9687 49.5443 49.1536 50.2734 50.1171C51.0286 51.0546 51.9401 51.5234 53.0078 51.5234C55.5078 51.5234 58.2031 49.388 61.0937 45.1171C59.7656 42.4609 59.1015 39.7916 59.1015 37.1093C59.1015 33.3854 60.0781 30.026 62.0312 27.0312C64.0104 24.0364 66.1719 22.539 68.5156 22.539C70.2864 22.539 71.1719 23.9062 71.1719 26.6406C71.1719 31.927 69.0364 38.0338 64.7656 44.9609C66.0937 46.1848 67.487 46.7968 68.9453 46.7968C70.7161 46.7968 72.8515 45.3775 75.3515 42.539V47.0312ZM104.57 47.0312C101.263 50.2864 98.2943 52.6952 95.6641 54.2578C93.0338 55.7942 90.1302 56.5624 86.9531 56.5624C83.4114 56.5624 80.5469 55.4296 78.3594 53.164C76.1979 50.8984 75.1172 47.9166 75.1172 44.2187C75.1172 38.6979 77.0312 33.7109 80.8594 29.2578C84.6875 24.7786 88.9323 22.539 93.5937 22.539C96.0156 22.539 97.9553 23.164 99.4143 24.414C100.872 25.664 101.601 27.3046 101.601 29.3359C101.601 34.7265 95.8724 39.1015 84.4141 42.4609C85.4557 47.539 88.1771 50.0781 92.5781 50.0781C94.2969 50.0781 95.9375 49.6223 97.5 48.7109C99.0623 47.7734 101.419 45.7161 104.57 42.539V47.0312ZM84.1015 39.8046C90.7682 37.9296 94.1015 34.4661 94.1015 29.414C94.1015 26.914 93.1901 25.664 91.3672 25.664C89.6484 25.664 88.0078 26.9791 86.4453 29.6093C84.8828 32.2135 84.1015 35.6119 84.1015 39.8046Z" fill="#F7F7F7"/>
<path d="M15.8348 71.2001V75.6641H12.7568V62.9381H17.7428C19.2548 62.9381 20.4068 63.3161 21.1988 64.0721C21.9908 64.8161 22.3868 65.8241 22.3868 67.0961C22.3868 67.8881 22.2068 68.5961 21.8468 69.2201C21.4988 69.8321 20.9768 70.3181 20.2808 70.6781C19.5848 71.0261 18.7388 71.2001 17.7428 71.2001H15.8348ZM17.4008 68.7341C18.6368 68.7341 19.2548 68.1881 19.2548 67.0961C19.2548 65.9801 18.6368 65.4221 17.4008 65.4221H15.8348V68.7341H17.4008ZM28.5993 65.4941C29.5953 65.4941 30.4833 65.7041 31.2633 66.1241C32.0553 66.5321 32.6733 67.1261 33.1173 67.9061C33.5733 68.6861 33.8013 69.5981 33.8013 70.6421C33.8013 71.6861 33.5733 72.5981 33.1173 73.3781C32.6733 74.1581 32.0553 74.7581 31.2633 75.1781C30.4833 75.5861 29.5953 75.7901 28.5993 75.7901C27.6033 75.7901 26.7093 75.5861 25.9173 75.1781C25.1253 74.7581 24.5013 74.1581 24.0453 73.3781C23.6013 72.5981 23.3793 71.6861 23.3793 70.6421C23.3793 69.5981 23.6013 68.6861 24.0453 67.9061C24.5013 67.1261 25.1253 66.5321 25.9173 66.1241C26.7093 65.7041 27.6033 65.4941 28.5993 65.4941ZM28.5993 68.1581C28.0113 68.1581 27.5133 68.3741 27.1053 68.8061C26.7093 69.2261 26.5113 69.8381 26.5113 70.6421C26.5113 71.4461 26.7093 72.0581 27.1053 72.4781C27.5133 72.8981 28.0113 73.1081 28.5993 73.1081C29.1873 73.1081 29.6793 72.8981 30.0753 72.4781C30.4713 72.0581 30.6693 71.4461 30.6693 70.6421C30.6693 69.8381 30.4713 69.2261 30.0753 68.8061C29.6793 68.3741 29.1873 68.1581 28.5993 68.1581ZM38.4754 67.5101C38.8594 66.8981 39.3514 66.4121 39.9514 66.0521C40.5634 65.6921 41.2234 65.5121 41.9314 65.5121V68.8061H41.0494C40.2334 68.8061 39.5974 68.9801 39.1414 69.3281C38.6974 69.6761 38.4754 70.2641 38.4754 71.0921V75.6641H35.3974V65.6201H38.4754V67.5101ZM48.9077 73.0181V75.6641H47.5217C46.3457 75.6641 45.4277 75.3761 44.7677 74.8001C44.1197 74.2121 43.7957 73.2461 43.7957 71.9021V68.2121H42.4457V65.6201H43.7957V63.1541H46.8737V65.6201H48.8897V68.2121H46.8737V71.9561C46.8737 72.3521 46.9517 72.6281 47.1077 72.7841C47.2757 72.9401 47.5517 73.0181 47.9357 73.0181H48.9077ZM55.5697 64.2521C55.0657 64.2521 54.6997 64.3601 54.4717 64.5761C54.2437 64.7921 54.1177 65.1401 54.0937 65.6201H55.9117V68.2121H54.0937V75.6641H51.0157V68.2121H49.8097V65.6201H51.0157V65.5121C51.0157 64.2641 51.3757 63.3041 52.0957 62.6321C52.8277 61.9481 53.8837 61.6061 55.2637 61.6061C55.5517 61.6061 55.7677 61.6121 55.9117 61.6241V64.2701L55.5697 64.2521ZM61.9626 65.4941C62.9586 65.4941 63.8466 65.7041 64.6266 66.1241C65.4186 66.5321 66.0366 67.1261 66.4806 67.9061C66.9366 68.6861 67.1646 69.5981 67.1646 70.6421C67.1646 71.6861 66.9366 72.5981 66.4806 73.3781C66.0366 74.1581 65.4186 74.7581 64.6266 75.1781C63.8466 75.5861 62.9586 75.7901 61.9626 75.7901C60.9666 75.7901 60.0726 75.5861 59.2806 75.1781C58.4886 74.7581 57.8646 74.1581 57.4086 73.3781C56.9646 72.5981 56.7426 71.6861 56.7426 70.6421C56.7426 69.5981 56.9646 68.6861 57.4086 67.9061C57.8646 67.1261 58.4886 66.5321 59.2806 66.1241C60.0726 65.7041 60.9666 65.4941 61.9626 65.4941ZM61.9626 68.1581C61.3746 68.1581 60.8766 68.3741 60.4686 68.8061C60.0726 69.2261 59.8746 69.8381 59.8746 70.6421C59.8746 71.4461 60.0726 72.0581 60.4686 72.4781C60.8766 72.8981 61.3746 73.1081 61.9626 73.1081C62.5506 73.1081 63.0426 72.8981 63.4386 72.4781C63.8346 72.0581 64.0326 71.4461 64.0326 70.6421C64.0326 69.8381 63.8346 69.2261 63.4386 68.8061C63.0426 68.3741 62.5506 68.1581 61.9626 68.1581ZM71.8387 62.3441V75.6641H68.7607V62.3441H71.8387ZM73.6758 62.7941C73.6758 62.3261 73.8438 61.9421 74.1798 61.6421C74.5158 61.3301 74.9598 61.1741 75.5118 61.1741C76.0638 61.1741 76.5078 61.3301 76.8438 61.6421C77.1798 61.9421 77.3478 62.3261 77.3478 62.7941C77.3478 63.2501 77.1798 63.6341 76.8438 63.9461C76.5078 64.2461 76.0638 64.3961 75.5118 64.3961C74.9598 64.3961 74.5158 64.2461 74.1798 63.9461C73.8438 63.6341 73.6758 63.2501 73.6758 62.7941ZM77.0418 65.6201V75.6641H73.9638V65.6201H77.0418ZM83.865 65.4941C84.861 65.4941 85.749 65.7041 86.529 66.1241C87.321 66.5321 87.939 67.1261 88.383 67.9061C88.839 68.6861 89.067 69.5981 89.067 70.6421C89.067 71.6861 88.839 72.5981 88.383 73.3781C87.939 74.1581 87.321 74.7581 86.529 75.1781C85.749 75.5861 84.861 75.7901 83.865 75.7901C82.869 75.7901 81.975 75.5861 81.183 75.1781C80.391 74.7581 79.767 74.1581 79.311 73.3781C78.867 72.5981 78.645 71.6861 78.645 70.6421C78.645 69.5981 78.867 68.6861 79.311 67.9061C79.767 67.1261 80.391 66.5321 81.183 66.1241C81.975 65.7041 82.869 65.4941 83.865 65.4941ZM83.865 68.1581C83.277 68.1581 82.779 68.3741 82.371 68.8061C81.975 69.2261 81.777 69.8381 81.777 70.6421C81.777 71.4461 81.975 72.0581 82.371 72.4781C82.779 72.8981 83.277 73.1081 83.865 73.1081C84.453 73.1081 84.945 72.8981 85.341 72.4781C85.737 72.0581 85.935 71.4461 85.935 70.6421C85.935 69.8381 85.737 69.2261 85.341 68.8061C84.945 68.3741 84.453 68.1581 83.865 68.1581Z" fill="#F7F7F7"/>
<path d="M27.6953 81.1641H73.6953" stroke="#93DEFF" stroke-width="3"/>
</svg>
